<svg width="254" height="256" viewBox="0 0 254 256" fill="none" xmlns="http://www.w3.org/2000/svg">
<path d="M66.9656 166.428C72.9519 166.428 76.486 164.089 76.486 159.246V123.625C76.486 118.913 78.4058 116.898 83.0918 116.898H85.0203C116.208 116.898 126.907 105.929 126.907 86.7482C126.907 64.2169 112.386 56.8082 93.8339 56.8082H70.0809C60.9532 56.8082 57.5412 62.9253 57.4103 69.7406V159.246C57.4714 164.089 60.8223 166.428 66.9569 166.428H66.9656ZM76.486 80.8928C76.486 73.4405 80.0114 72.6901 85.0203 72.4021C102.045 72.4021 108.145 75.4127 108.145 86.7482C108.145 95.8497 105.841 101.243 85.0203 101.243C78.5716 101.243 76.486 99.8376 76.486 95.4046V80.8928ZM236.395 100.335C224.126 51.8168 180.189 15.9168 127.858 15.9168C66.0319 15.9168 15.908 66.0406 15.908 127.866C15.908 189.692 66.0319 239.816 127.858 239.816C189.684 239.816 218.969 203.131 218.969 159.386C218.969 133.268 202.433 106.888 171.926 106.888C153.129 106.888 144.953 115.807 144.953 130.074V132.788C144.953 137.221 145.38 140.301 155.546 140.301H165.372C169.727 140.301 172.624 143.295 172.624 148.757C172.624 154.22 169.43 157.126 165.372 157.126H151.55C146.864 157.126 144.953 159.142 144.953 163.854C144.97 170.468 144.953 167.24 144.953 173.898C144.953 182.301 148.67 186.42 159.456 186.42H183.689C188.043 186.42 190.94 189.413 190.94 194.876C190.94 200.338 187.746 203.244 183.689 203.244H151.07C137.919 203.244 125.912 198.314 125.912 182.266V130.353C125.912 102.508 146.375 90.1601 171.943 90.1601C210.408 90.1601 234.903 121.522 235.086 161.995C235.305 209.658 199.178 255.733 127.866 255.733C56.5551 255.733 0 198.488 0 127.866C0 57.2445 57.2445 0 127.866 0C186.699 0 234.24 40.3242 251.152 93.8252C252.129 96.923 253.403 100.326 253.403 103.119C253.403 106.923 250.715 110.772 245.427 110.772C238.786 110.772 237.399 104.253 236.413 100.335H236.395Z" fill="#010101"/>
</svg>
