<?xml version="1.0" encoding="UTF-8"?>
<svg id="ARTWORK" xmlns="http://www.w3.org/2000/svg" viewBox="0 0 1224 792">
  <defs>
    <style>
      .cls-1 {
        fill: #0f1a30;
      }
    </style>
  </defs>
  <path class="cls-1" d="M683.32,389.84c18.68,0,28.72-11.68,28.72-26.23,0-4.68-2.95-8.07-8.52-8.07s-7.4,4.91-8.98,9.49c-1.57,4.54-5.13,8.86-12.93,8.86-9.06,0-15.59-6.65-15.59-17.88,0-9.19,7.7-12.62,16.56-15.35,11.74-3.61,26.96-12,26.96-35.07,0-19.58-11.42-27.6-26.96-27.6-28.16,0-36.64,29.2-36.64,52.04,0,29.31,4.07,59.82,37.37,59.82ZM682.59,293.99c7.52,0,9.66,4.85,9.66,11.21,0,10.35-8.39,22.2-19.99,22.2-4.36,0-7.75-3.12-7.75-9.23,0-14.22,10.24-24.18,18.08-24.18h0ZM907.24,514.03c18.68,0,28.72-11.68,28.72-26.23,0-4.68-2.95-8.07-8.52-8.07s-7.4,4.91-8.98,9.49-5.13,8.86-12.93,8.86c-9.06,0-15.59-6.65-15.59-17.88,0-9.19,7.7-12.62,16.56-15.35,11.74-3.61,26.96-12,26.96-35.07,0-19.58-11.42-27.91-26.96-27.91-28.16,0-36.64,29.52-36.64,52.35,0,29.31,4.07,59.82,37.37,59.82ZM906.52,417.87c7.52,0,9.66,5.17,9.66,11.53,0,10.35-8.39,22.2-19.99,22.2-4.36,0-7.75-3.12-7.75-9.23,0-14.22,10.24-24.49,18.08-24.49h0ZM483.19,514.03c18.68,0,28.72-11.68,28.72-26.23,0-4.68-2.95-8.07-8.52-8.07s-7.4,4.91-8.98,9.49-5.13,8.86-12.93,8.86c-9.06,0-15.59-6.65-15.59-17.88,0-9.19,7.7-12.62,16.56-15.35,11.74-3.61,26.96-12,26.96-35.07,0-19.58-11.42-27.91-26.96-27.91-28.16,0-36.64,29.52-36.64,52.35,0,29.31,4.07,59.82,37.37,59.82ZM482.47,417.87c7.52,0,9.66,5.17,9.66,11.53,0,10.35-8.39,22.2-19.99,22.2-4.36,0-7.75-3.12-7.75-9.23,0-14.22,10.24-24.49,18.08-24.49h0ZM786.08,363.29c0,16.96-12.06,26.54-29.33,26.54-31,0-37.03-25.89-37.03-60.56,0-22.84,8.8-51.3,37.04-51.3,15.26,0,23.82,10.02,23.82,16.51,0,3.36-2.57,8.01-8.94,8.01-2.76,0-5.28-1.85-6.72-4.39-1.37-2.41-3.85-4.12-8.14-4.12-7.31,0-17.07,3.73-17.07,35.29,0,33.34,6.36,44.59,17.07,44.59,7.29,0,10.43-5.13,12.22-9.93,1.49-4,3.1-8.38,8.93-8.38,4.31,0,8.16,2.76,8.16,7.73ZM382.24,389.87c6.05,0,9.63-2.37,9.63-7.27v-36.16c0-4.77,1.94-6.81,6.68-6.81h1.95c31.54,0,42.37-11.1,42.37-30.49,0-22.79-14.69-30.29-33.45-30.29h-24.02c-9.23,0-12.68,6.18-12.81,13.08v90.66c.06,4.9,3.45,7.27,9.66,7.27ZM391.87,303.23c0-7.54,3.57-8.3,8.63-8.59,17.22,0,23.39,3.04,23.39,14.51,0,9.2-2.33,14.66-23.39,14.66-6.52,0-8.63-1.42-8.63-5.9v-14.68ZM728.62,401.88c-24.37,0-36.67,20.79-36.67,55.95s12.67,55.91,36.67,55.91,36.7-20.24,36.7-55.91-12.19-55.95-36.7-55.95ZM728.62,497.87c-10.25,0-16.92-8.36-16.92-40.03,0-33.82,8.13-39.87,16.92-39.87s16.95,6.05,16.95,39.87c0,31.92-6.7,40.03-16.95,40.03ZM567.27,339.65c17.94,0,32.46-12.21,32.46-30.83s-14.74-30.85-32.46-30.85-32.46,12.23-32.46,30.85,14.39,30.83,32.46,30.83ZM567.27,294.23c7.73,0,14.12,5.93,14.12,14.83s-6.19,14.84-14.13,14.84-14.12-6.11-14.12-14.84,6.32-14.83,14.13-14.83h0ZM472.99,303.23c0-7.54,3.57-8.3,8.63-8.59,17.22,0,23.39,3.04,23.39,14.51s-5.64,14.66-23.39,14.66c-6.52,0-8.63-1.42-8.63-5.9v-14.68ZM479.67,339.65h1.8c7.15,0,10.68,5.75,15.26,12.56,1.98,2.95,6.17,9.05,8.56,12.64,10.81,16.21,28.06,24.99,47.18,24.99,7.11,0,11.3-2.46,11.3-8.28s-4.15-8.33-11.15-8.33c-16.78,0-31.33-16.61-44.53-37.77,11.45-4.78,15.9-13.89,15.9-26.3,0-22.79-14.69-30.29-33.45-30.29h-24.02c-9.23,0-12.68,6.18-12.81,13.08v90.66c.06,4.9,3.45,7.27,9.66,7.27s9.63-2.37,9.63-7.27v-36.16c0-4.77,1.94-6.8,6.68-6.8ZM842.65,278.89c4.32,0,6.97,2.84,6.97,7.9s-2.77,7.86-6.66,7.86h-8.18c-6.44,0-7.67,2.59-7.67,7.29v80.68c0,4.9-3.57,7.27-9.63,7.27s-9.6-2.37-9.66-7.27v-80.68c0-4.7-1.24-7.29-7.67-7.29h-8.18c-3.89,0-6.66-2.8-6.66-7.86s2.65-7.9,6.97-7.9h50.38ZM335.29,458.45c0,5.53-3.23,8.46-7.33,8.46h-13.98c-4.74,0-6.68,2.04-6.68,6.81.02,6.69,0,2.8,0,9.53,0,8.5,3.76,12.66,14.67,12.66h24.51s-.02,0,0,0c4.41,0,7.33,3.02,7.33,8.55s-3.23,8.46-7.33,8.46h-32.99c-13.3,0-25.45-4.99-25.45-21.22v-51.88c0-27.15,18.87-38.06,46.56-38.06,39.02,0,45.66,16.97,51.12,39.22h.02c4.15,16.87,8.15,32.82,10.29,41.6.54,2.29,1.12,3.45,2.47,3.45s1.81-.96,2.47-3.7c3.47-14.26,13-52.18,17.35-69.38,1.16-4.58,2.62-11.2,11.95-11.2h0s0,0,0,0c7.36,0,8.93,4.16,8.93,7.43,0,2.2-1.28,6.32-2.54,10.96s-23.43,84.66-23.43,84.66c-1.21,4.23-5.01,8.01-10.53,8.01h-8.43c-4.93,0-8.78-2.93-10.53-8.01l-17.52-63.27c-3.76-13.85-9.96-23.79-31.91-23.79-19.52,0-27.03,8.77-27.03,21.79v2.74c0,4.48.43,7.6,10.72,7.6h9.94c4.41,0,7.33,3.03,7.33,8.56ZM835.02,409c.06-4.9,3.43-7.27,9.64-7.27s9.66,2.37,9.66,7.27v95.92c0,5.04-2.56,8.54-9.23,8.54-6.11,0-9.23-1.66-11.72-6.86-6.32-13.3-17.92-37.83-28.89-61.36-.65-1.39-1.18-2.41-2.34-2.41-.87,0-1.72.65-1.72,1.71v61.78c0,4.9-3.6,7.27-9.65,7.27s-9.57-2.37-9.63-7.27v-95.92c0-5.03,3.68-7.57,9.65-7.57h4.38c6.57,0,9.66,3.43,12.78,10.08,5.58,11.75,17.89,37.83,23.49,49.78.65,1.38,1.09,2.16,2.16,2.16.86,0,1.43-.66,1.43-1.71v-54.14ZM544.01,427.11c0-7.54,3.57-8.3,8.63-8.59,17.22,0,23.39,3.04,23.39,14.51s-5.83,14.66-23.39,14.66c-6.52,0-8.63-1.42-8.63-5.9v-14.68ZM676.55,454.47l.02-45.96c0-4.9-3.58-7.27-9.63-7.27s-9.6,2.37-9.66,7.27v24.38c0,7.99-2.79,13.23-10.27,13.23-10.48,0-17.79-3.25-17.79-19.71v-17.9c0-4.9-3.57-7.27-9.63-7.27s-9.6,2.37-9.66,7.27v20.86c-.01,41.18,44.58,23.6,44.58,43.72,0,16.96-10.77,24.64-28.97,24.64-23.36,0-33.8-17.25-47-38.41,11.45-4.78,15.9-13.89,15.9-26.3,0-22.79-14.69-30.29-33.45-30.29h-24.02c-9.23,0-12.68,6.18-12.81,13.08v90.53c.06,4.9,3.45,7.27,9.66,7.27s9.63-2.37,9.63-7.27v-36.03c0-4.77,1.94-6.8,6.68-6.8h1.72c7.5,0,10.76,5.75,15.34,12.56,1.98,2.95,6.17,9.05,8.56,12.64,10.81,16.21,25.94,25.01,49.3,25.01,42.73,0,51.5-25.51,51.5-59.26ZM582.84,389.85c29.64,0,48.02-10.95,48.02-44.29v-60.33c-.06-4.9-3.45-7.27-9.66-7.27-6.05,0-9.63,2.37-9.63,7.27v54.43c0,25.65-8.58,33.57-28.61,33.57-7.11,0-11.29,2.47-11.29,8.29,0,5.69,4.17,8.34,11.17,8.34Z"/>
</svg>